<!DOCTYPE svg PUBLIC "-//W3C//DTD SVG 1.1//EN" "http://www.w3.org/Graphics/SVG/1.1/DTD/svg11.dtd">
<!-- Uploaded to: SVG Repo, www.svgrepo.com, Transformed by: SVG Repo Mixer Tools -->
<svg fill="#dc143c" width="98px" height="98px" viewBox="0 0 24 24" xmlns="http://www.w3.org/2000/svg">
<g id="SVGRepo_bgCarrier" stroke-width="0"/>
<g id="SVGRepo_tracerCarrier" stroke-linecap="round" stroke-linejoin="round"/>
<g id="SVGRepo_iconCarrier">
<path d="M7.293,7.707a1,1,0,0,1,0-1.414l4-4a1,1,0,0,1,1.414,0l4,4a1,1,0,1,1-1.414,1.414L12,4.414,8.707,7.707A1,1,0,0,1,7.293,7.707Zm0,10,4,4a1,1,0,0,0,1.414,0l4-4a1,1,0,0,0-1.414-1.414L12,19.586,8.707,16.293a1,1,0,1,0-1.414,1.414Z"/>
</g>
</svg>